<svg width="48" height="48" viewBox="0 0 48 48" fill="none" xmlns="http://www.w3.org/2000/svg">
<path d="M24 48C20.7083 48 17.6042 47.375 14.6875 46.125C11.7917 44.875 9.23958 43.1562 7.03125 40.9688C4.82292 38.7604 3.09375 36.2083 1.84375 33.3125C0.614583 30.4167 0 27.3125 0 24C0.0208333 20.6875 0.65625 17.5833 1.90625 14.6875C3.15625 11.7708 4.875 9.21875 7.0625 7.03125C9.27083 4.82292 11.8229 3.10417 14.7188 1.875C17.6146 0.625 20.7083 0 24 0C27.3333 0 30.4479 0.625 33.3438 1.875C36.2396 3.10417 38.7812 4.82292 40.9688 7.03125C43.1771 9.21875 44.8958 11.7708 46.125 14.6875C47.375 17.5833 48 20.6875 48 24C48.0208 27.3125 47.4062 30.4167 46.1562 33.3125C44.9271 36.2083 43.2083 38.7604 41 40.9688C38.8125 43.1562 36.2604 44.875 33.3438 46.125C30.4479 47.375 27.3333 48 24 48Z" fill="black"/>
</svg>
